<svg xmlns="http://www.w3.org/2000/svg" viewBox="0 0 437.32 442.66"><defs><style>.cls-1{fill:#ebebeb;}.cls-2{fill:#dbdbdb;}.cls-3{fill:#a6a6a6;}.cls-4{fill:#c7c7c7;}.cls-5{opacity:0.3;}.cls-16,.cls-6{fill:#263238;}.cls-7{fill:#ffc727;}.cls-8{opacity:0.1;}.cls-9{fill:#37474f;}.cls-10,.cls-11,.cls-16{opacity:0.2;}.cls-12{fill:#ad6359;}.cls-13{fill:#fff;}.cls-14{fill:#455a64;}.cls-15{fill:#ff98b9;}</style></defs><g id="Camada_2" data-name="Camada 2"><g id="Speech_bubbles" data-name="Speech bubbles"><rect class="cls-1" x="14.77" y="302.33" width="26.48" height="11.19"/><rect class="cls-1" y="316.44" width="26.48" height="11.19"/><rect class="cls-1" x="186.28" y="87.59" width="26.48" height="11.19"/><rect class="cls-1" x="171.51" y="101.7" width="26.48" height="11.19"/><rect class="cls-1" x="156.8" y="87.59" width="26.48" height="11.19"/><rect class="cls-1" x="410.84" y="316.44" width="26.48" height="11.19"/><rect class="cls-1" x="396.07" y="1.04" width="26.48" height="11.19"/><rect class="cls-1" x="410.84" y="15.15" width="26.48" height="11.19"/><rect class="cls-1" x="14.77" y="1.04" width="26.48" height="11.19"/><rect class="cls-1" x="252.18" y="58.03" width="160.16" height="6.88"/><polygon class="cls-1" points="275.47 91.98 269.23 91.98 266.73 64.91 275.47 64.91 275.47 91.98"/><polygon class="cls-1" points="389.06 91.98 395.3 91.98 397.8 64.91 389.06 64.91 389.06 91.98"/><polygon class="cls-2" points="266.73 64.91 275.46 64.91 275.46 74.24 267.58 74.24 266.73 64.91"/><polygon class="cls-2" points="397.8 64.91 396.94 74.24 389.06 74.24 389.06 64.91 397.8 64.91"/><path class="cls-1" d="M310.18,16.78c-7.11,9.62-14.52,20.79-16.32,32.86a.16.16,0,0,0,.31.06A71.66,71.66,0,0,1,297.31,40c4.67-1.29,9.26-2.34,11.71-7s2.19-11,1.71-16.18C310.7,16.61,310.32,16.59,310.18,16.78Z"/><path class="cls-3" d="M297.38,40a79.85,79.85,0,0,1,12.5-20.25s.09,0,.06.06a85.28,85.28,0,0,0-8.53,13.41c2.35-2.39,4.93-4.53,7.16-7.06,0-.05.11,0,.07.07a39.28,39.28,0,0,1-7.51,7.51Q300,35.83,298.78,38l.59-.3s.07,0,0,0c-.22.11-.43.23-.66.32-.37.68-.74,1.36-1.13,2C297.52,40.23,297.32,40.1,297.38,40Z"/><path class="cls-3" d="M299.76,37.45a42.38,42.38,0,0,0,5.45-3.64c.05,0,.12,0,.07.07a28.68,28.68,0,0,1-5.44,3.7C299.75,37.63,299.67,37.5,299.76,37.45Z"/><path class="cls-1" d="M293.08,49.53a.13.13,0,0,0,.26,0c0-4,0-8,.06-12,1-2.06,3.21-3.19,4.73-4.84A21.36,21.36,0,0,0,301,28.77a28.28,28.28,0,0,0,3.29-11c.42-4.25-1.19-18.28-3-17.8-.93.25-3.93,7.2-4.73,9.5a65.76,65.76,0,0,0-2.83,11.65A124.63,124.63,0,0,0,293.08,49.53Z"/><path class="cls-3" d="M293.05,32.39l0,0a90.22,90.22,0,0,1,2.41-15c1.14-5.25,2.48-10.2,5.18-14.89,0-.09.18,0,.14.08A55.65,55.65,0,0,0,296.63,14c.18-.28.4-.55.59-.82.08-.1.25,0,.18.1a7.87,7.87,0,0,1-.85,1.2h0c-.93,3.76-1.6,7.6-2.17,11.43l.12-.14a0,0,0,0,1,.06,0c-.07.13-.15.25-.23.38q-.42,2.93-.82,5.81a27.4,27.4,0,0,0,8.09-10.75s0,0,0,0a22.31,22.31,0,0,1-8.17,11.13c-.08.52-.15,1-.22,1.55,0,.11-.19.08-.19,0,0-.46,0-.92,0-1.38A.1.1,0,0,1,293.05,32.39Z"/><path class="cls-3" d="M294.68,25.1a80,80,0,0,0,7.06-12.16s.1,0,.08,0a39.17,39.17,0,0,1-7,12.22C294.75,25.27,294.63,25.18,294.68,25.1Z"/><path class="cls-3" d="M298.2,12c1.1-1.94,2.25-3.83,3.28-5.81,0,0,.11,0,.09,0a31.12,31.12,0,0,1-3.2,5.86A.1.1,0,0,1,298.2,12Z"/><path class="cls-3" d="M297.77,12.81s0,0,0,0S297.75,12.81,297.77,12.81Z"/><path class="cls-1" d="M291.13,39.35a39.6,39.6,0,0,1-.93,7.83c.05.28.09.56.13.86a37.59,37.59,0,0,0,1.4-8.73.29.29,0,0,0,0-.27h0a58,58,0,0,0-.88-11.83c-1.23-7.3-3.92-14.32-9-19.79a.37.37,0,0,0-.57.12c-2,5.22-1.33,11.46.42,16.68a30.54,30.54,0,0,0,4,7.92C287.49,34.58,289.71,36.66,291.13,39.35Z"/><path class="cls-3" d="M282.45,9.86c4.83,7.83,8.19,17.12,8.6,26.38,0,.16-.27.21-.29,0-.12-.83-.24-1.66-.38-2.48h0a31.71,31.71,0,0,1-5.47-6.32c0-.05,0-.09.06-.06a66.47,66.47,0,0,0,5.33,5.8q-.53-3.07-1.24-6l-.39-.45c-.08-.1.06-.24.15-.14l.11.13a69.71,69.71,0,0,0-2.52-8,24.11,24.11,0,0,1-3.5-4.5s0-.07.06,0c.72,1,1.42,2,2.24,3,.32.37.68.72,1,1.08a62.74,62.74,0,0,0-4-8.24C282.19,9.84,282.38,9.74,282.45,9.86Z"/><path class="cls-3" d="M283.43,19.52c1.56,2.1,3.34,4.11,4.79,6.28,0,.06-.05.12-.1.08a31.71,31.71,0,0,1-4.8-6.3C283.28,19.52,283.38,19.46,283.43,19.52Z"/><path class="cls-3" d="M288.43,26.28l.07.07a0,0,0,1,1-.07.07l-.07-.06C288.32,26.31,288.39,26.24,288.43,26.28Z"/><path class="cls-1" d="M274.14,22.94a24.08,24.08,0,0,0,5.09,12,12.66,12.66,0,0,0,4.14,3.23c1.79.88,3.66,1.9,5.51,2.63a35.54,35.54,0,0,1,1.95,6.93l.18-.61c-1.19-10.21-7.79-18.93-16.24-24.53A.41.41,0,0,0,274.14,22.94Z"/><path class="cls-3" d="M277.06,26c-.06-.06,0-.16.08-.12a34.58,34.58,0,0,1,10.77,13.27c.06.14-.13.26-.21.12q-.58-1-1.2-2h0a11.59,11.59,0,0,1-5.18-3s0-.09.06-.06a11.31,11.31,0,0,0,2.44,1.72,26,26,0,0,0,2.45,1c-.72-1.14-1.46-2.22-2.24-3.28a22.53,22.53,0,0,1-5.8-3.26c-.05,0,0-.13.06-.09a59.33,59.33,0,0,0,5.38,2.88,45.37,45.37,0,0,0-3.8-4.43c-.65-.35-1.32-.7-1.95-1.07a.05.05,0,0,1,0-.1,7.46,7.46,0,0,1,1.5.74C278.69,27.46,277.9,26.7,277.06,26Z"/><path class="cls-3" d="M277.24,29.48a1.86,1.86,0,0,1,.32.23s0,.07,0,.06a3,3,0,0,1-.34-.2C277.13,29.54,277.18,29.44,277.24,29.48Z"/><polygon class="cls-2" points="301.4 58.03 284 58.03 284.86 46.63 285.19 42.91 300.06 42.91 300.39 46.63 301.4 58.03"/><polygon class="cls-4" points="300.39 46.63 284.86 46.63 285.19 42.91 300.06 42.91 300.39 46.63"/><rect class="cls-2" x="284" y="39.86" width="17.24" height="3.81"/><rect class="cls-4" x="317.76" y="32.09" width="41.41" height="10.43" transform="translate(375.77 -301.16) rotate(90)"/><rect class="cls-2" x="336.19" y="11.45" width="4.55" height="10.43" transform="translate(355.12 -321.8) rotate(90)"/><rect class="cls-2" x="337.62" y="20.4" width="1.69" height="10.43" transform="translate(364.07 -312.85) rotate(90)"/><rect class="cls-2" x="336.19" y="45.09" width="4.55" height="10.43" transform="translate(388.76 -288.16) rotate(90)"/><rect class="cls-2" x="323.17" y="30.21" width="48.3" height="7.29" transform="translate(381.18 -313.46) rotate(90)"/><rect class="cls-1" x="338" y="21.35" width="18.58" height="4.37" transform="translate(370.82 -323.75) rotate(90)"/><rect class="cls-4" x="358.98" y="34.74" width="48.3" height="7.29" transform="translate(137.63 -258.25) rotate(44.67)"/><rect class="cls-2" x="376.37" y="38.66" width="18.58" height="4.37" transform="translate(140.08 -259.31) rotate(44.67)"/><rect class="cls-3" x="338.8" y="33.48" width="36.69" height="12.38" transform="translate(396.82 -317.47) rotate(90)"/><rect class="cls-4" x="355.44" y="46.23" width="3.42" height="12.38" transform="translate(409.56 -304.73) rotate(90)"/><rect class="cls-4" x="356.48" y="41.61" width="1.33" height="12.38" transform="translate(404.95 -309.35) rotate(90)"/><rect class="cls-3" x="305.34" y="36.23" width="34.48" height="8.55" transform="translate(487.06 -239.94) rotate(113.23)"/><rect class="cls-4" x="316.25" y="47.24" width="3.21" height="8.55" transform="translate(490.58 -220.25) rotate(113.23)"/><rect class="cls-4" x="324.34" y="28.4" width="3.21" height="8.55" transform="translate(484.55 -253.95) rotate(113.23)"/><rect class="cls-4" x="323.58" y="32.47" width="1.25" height="8.55" transform="translate(485.86 -246.67) rotate(113.23)"/><path class="cls-4" d="M53.44,49.68V1.17H102V49.68ZM55.73,3.46V47.39H99.66V3.46Z"/><rect class="cls-1" x="71.79" y="14.17" width="15.19" height="34.24" transform="translate(110.67 -48.09) rotate(90)"/><rect class="cls-4" x="63.28" y="75.64" width="11.47" height="33.14" transform="translate(138.03 184.42) rotate(180)"/><rect class="cls-1" x="65.45" y="134.91" width="14.41" height="24.11" transform="translate(-74.31 219.62) rotate(-90)"/><path class="cls-4" d="M53.44,114.83V66.33H102v48.5Zm2.29-46.21v43.93H99.66V68.62Z"/><path class="cls-4" d="M53.44,180v-48.5H102V180Zm2.29-46.21V177.7H99.66V133.78Z"/><rect class="cls-4" x="68.92" y="16.65" width="17.54" height="17.54" transform="translate(103.12 -52.27) rotate(90)"/><rect class="cls-1" x="68.92" y="81.81" width="17.54" height="17.54" transform="translate(168.28 12.89) rotate(90)"/><rect class="cls-4" x="68.92" y="146.97" width="17.54" height="17.54" transform="translate(233.44 78.05) rotate(90)"/><g class="cls-5"><ellipse class="cls-1" cx="218.66" cy="409.59" rx="180.39" ry="24.31"/></g><polygon class="cls-6" points="2.06 371.2 56.21 370.96 110.36 370.87 218.66 370.7 326.96 370.87 381.11 370.95 435.26 371.2 381.11 371.44 326.96 371.53 218.66 371.7 110.36 371.53 56.21 371.44 2.06 371.2"/><path class="cls-7" d="M55.09,193.16s25-3.5,19.15-33.67C74.24,159.49,46.32,165.76,55.09,193.16Z"/><path class="cls-8" d="M55.09,193.16s25-3.5,19.15-33.67C74.24,159.49,46.32,165.76,55.09,193.16Z"/><path class="cls-6" d="M56.36,186.86a46,46,0,0,1,1.7-4.49c0-.2,0-.39.06-.57,0-.42.07-.84.11-1.25.07-.9.12-1.8.18-2.7.1-1.8.22-3.61.25-5.41a.07.07,0,1,1,.15,0c0,1.81,0,3.61,0,5.42,0,.9-.09,1.8-.15,2.7,0,.2,0,.4,0,.6a53.93,53.93,0,0,1,5-8.57c.86-1.2,1.76-2.35,2.73-3.46s2-2.23,3.06-3.36c.07-.07.17,0,.11.11a44.94,44.94,0,0,0-4.82,6.41c-.76,1.15-1.48,2.32-2.16,3.52l.23-.09.89-.36,2-.77c1.35-.5,2.69-1,4-1.5.08,0,.14.11.06.15-1.33.53-2.64,1.09-4,1.65l-1.93.83-1,.41a2.73,2.73,0,0,1-.66.23c-.5.91-1,1.81-1.46,2.74a64.27,64.27,0,0,0-3.06,7.2l-.18.52a14.82,14.82,0,0,1,2-1l2.59-1.18c1.75-.8,3.49-1.62,5.17-2.57.09-.05.16.09.07.13-1.71.94-3.4,1.94-5.12,2.88-.86.46-1.72.92-2.6,1.34a8.09,8.09,0,0,1-2.35.94,29.81,29.81,0,0,0-1.64,7.09c-.28,3.41-.24,6.85-.32,10.27a0,0,0,1,1-.09,0c-.25-3.1-.39-6.23-.41-9.35A27.2,27.2,0,0,1,56.36,186.86Z"/><path class="cls-6" d="M60.2,169.12a28.7,28.7,0,0,1,.25,5.32,0,0,0,1,1-.07,0c-.1-1.76-.12-3.52-.32-5.28C60.05,169.06,60.19,169,60.2,169.12Z"/><path class="cls-6" d="M67.35,170.63a18.76,18.76,0,0,0,3.21-1.58c.09-.05.16.08.08.14a12.29,12.29,0,0,1-3.25,1.55C67.33,170.75,67.29,170.66,67.35,170.63Z"/><path class="cls-6" d="M54.3,241.06c0-2.77.07-5.53.1-8.29.05-9.17.13-18.34.29-27.51q.2-10.92.51-21.84a.15.15,0,0,1,.06-.1c0-2,0-4,0-6,0-.05.06-.07.12-.07s.12,0,.11.07q0,3,0,6s.06,0,.06.08c.37,13,.69,25.92.77,38.88,0,2.64,0,5.27,0,7.91q.12,12.67.09,25.35c0,1.34,0,2.69,0,4,0,7.73-.08,15.46-.08,23.2,0,.41-.46.62-.95.64s-1.16-.2-1.16-.68c0-8.52-.06-17.05-.06-25.57C54.28,251.8,54.26,246.43,54.3,241.06Z"/><path class="cls-7" d="M64.73,232.67s12-8.91,23.43-2.89S101.36,259,101.36,259s-16.75,2.4-27.3-7.64C63.89,241.67,64.73,232.67,64.73,232.67Z"/><path class="cls-6" d="M61.46,233.21a14.3,14.3,0,0,1,7-.9,10.46,10.46,0,0,1,1.47-.15l1.7-.12c1.16-.1,2.33-.17,3.5-.25,2.37-.18,4.75-.32,7.12-.56.08,0,.1.14,0,.15-2.34.3-4.67.63-7,.87-1.21.12-2.42.24-3.63.33l-.88.09c.36.08.72.16,1.07.26a28.56,28.56,0,0,1,5.45,2.21c.94.17,1.89.44,2.81.66,1.49.35,3,.73,4.45,1.12,2.92.76,5.81,1.62,8.7,2.47.1,0,0,.17,0,.14-2.89-.71-5.8-1.36-8.7-2.05-1.41-.33-2.82-.66-4.23-1l-1.11-.26a35.42,35.42,0,0,1,8.55,7.43A47,47,0,0,1,93.58,253c0,.08-.08.17-.13.08a45.81,45.81,0,0,0-7.19-9.43c0,.16.11.32.16.48.22.71.44,1.41.67,2.12.44,1.42.89,2.83,1.31,4.25a.07.07,0,1,1-.14,0c-.51-1.37-1-2.75-1.48-4.13-.23-.68-.47-1.35-.71-2l-.36-1.06c0-.11-.08-.21-.11-.32a43.12,43.12,0,0,0-4.27-3.63A31.78,31.78,0,0,0,75,235.72l.12.62.36,1.64c.23,1.14.45,2.28.67,3.42.46,2.32.74,4.68,1.17,7a.07.07,0,1,1-.14,0c-.54-2.33-1.24-4.64-1.76-7-.26-1.17-.52-2.35-.77-3.52l-.33-1.65c-.06-.31-.14-.61-.17-.92-.22-.09-.43-.19-.65-.27-3.16-1.17-6.64-2-10-1.37a9.82,9.82,0,0,0-7.24,5.8c-.11.26-.52.09-.46-.17C56.4,236.47,58.82,234.32,61.46,233.21Z"/><path class="cls-6" d="M79.86,243.12c.34,1.52.68,3,1,4.57a33.72,33.72,0,0,1,.84,4.44c0,.06-.08.06-.1,0a35.72,35.72,0,0,1-1-4.47c-.29-1.51-.59-3-.88-4.51C79.69,243.06,79.84,243,79.86,243.12Z"/><path class="cls-6" d="M91.48,247c1.53.78,3,1.66,4.62,2.3.1,0,0,.18-.07.13a46.12,46.12,0,0,1-4.58-2.37A0,0,0,0,1,91.48,247Z"/><path class="cls-7" d="M62,216.31s14.69.94,21.52-8.75S88.86,184,88.86,184s-15.44,1.87-21.56,8.83S62,216.31,62,216.31Z"/><path class="cls-6" d="M55.13,230.81c.51-1.58,1.14-3.13,1.74-4.67s1.18-2.95,1.83-4.4a89.07,89.07,0,0,1,4.4-8.66c1-1.79,2.15-3.52,3.29-5.23,0-.26.08-.52.11-.78l.21-1.36c.15-.93.31-1.86.46-2.79.34-2,.76-4,1.08-6.07,0-.1.17-.1.16,0-.3,2-.5,4-.78,6-.14,1-.27,2-.42,3,0,.36-.11.71-.17,1.07a106.56,106.56,0,0,1,7.27-9.43l1.07-1.2c0-.11.09-.22.14-.33l.32-.84c.21-.59.43-1.17.64-1.76.41-1.15.78-2.31,1.09-3.49,0-.09.17,0,.15.05-.3,1.2-.61,2.4-1,3.6-.17.57-.36,1.14-.56,1.7,0,.1-.07.19-.1.29,1.87-2.05,3.83-4,5.81-6a.08.08,0,0,1,.11.11A104.35,104.35,0,0,0,71.6,202.38a8.58,8.58,0,0,1,1.08-.28c1.14-.22,2.28-.38,3.42-.52,2.39-.31,4.78-.61,7.16-1,.1,0,.14.12,0,.14-2.28.45-4.53,1-6.79,1.48-1.07.25-2.14.46-3.21.67a20.11,20.11,0,0,0-2.58.74c-.24.34-.49.67-.72,1-1.08,1.57-2.11,3.17-3.13,4.79l1.5-.3c1.14-.22,2.28-.42,3.42-.61,2.24-.37,4.48-.76,6.69-1.26a.08.08,0,0,1,0,.15c-2.25.52-4.47,1.14-6.7,1.73-1.08.29-2.16.55-3.25.79l-1.63.35a4.65,4.65,0,0,1-.66.12q-3.23,5.22-6,10.67c-.82,1.6-1.61,3.22-2.37,4.84s-1.46,3.37-2.18,5.07C55.55,231.31,55,231.17,55.13,230.81Z"/><path class="cls-6" d="M70.17,197c.28-1.4.58-2.8.89-4.19,0-.1.16,0,.14,0-.27,1.38-.54,2.76-.79,4.14s-.45,2.78-.83,4.12c0,0,0,0,0,0A29.88,29.88,0,0,1,70.17,197Z"/><path class="cls-6" d="M78.74,196.63c.68-.34,1.4-.61,2.11-.89l1.12-.43.56-.23a2.48,2.48,0,0,0,.62-.27c.12-.08.19.11.08.13a2.85,2.85,0,0,0-.63.25l-.56.25-1.07.48a21.28,21.28,0,0,1-2.17.86C78.71,196.81,78.66,196.67,78.74,196.63Z"/><path class="cls-7" d="M47,204.76s-8.89-16.61-22.42-19.18-21.8,11.34-21.8,11.34,9.86,12.6,22.28,14.8S47,204.76,47,204.76Z"/><path class="cls-6" d="M15.51,193a36.64,36.64,0,0,1,10.61.13l-.61-.33-3-1.54a70.28,70.28,0,0,0-6.35-3.1.08.08,0,1,1,.06-.14c2.12,1,4.31,1.81,6.44,2.79,1.06.48,2.1,1,3.13,1.54.67.35,1.41.69,2.07,1.11a37.38,37.38,0,0,1,8.59,2.86c-.56-.62-1.13-1.23-1.69-1.84-1.26-1.38-2.5-2.83-3.88-4.09-.08-.07,0-.17.11-.11,1.41,1.29,2.91,2.48,4.28,3.82.67.64,1.3,1.32,1.92,2,.31.34.62.7.92,1.07A36.26,36.26,0,0,1,52.3,211.05a36.49,36.49,0,0,1,3.94,10.64.07.07,0,1,1-.14,0,40.85,40.85,0,0,0-9.94-16.82A39.16,39.16,0,0,0,28,194.42a39.57,39.57,0,0,0-12.5-1.13A.14.14,0,0,1,15.51,193Z"/><path class="cls-8" d="M2.77,196.93s9.86,12.6,22.28,14.79c9.47,1.68,17.26-3.26,20.42-5.69l.68-1.12s-6.4-5.4-18.51-8.51S2.77,196.93,2.77,196.93Z"/><path class="cls-6" d="M23.36,187.1a35.48,35.48,0,0,1,3,2A19.08,19.08,0,0,1,29,191.47a.08.08,0,0,1-.12.11c-.9-.78-1.8-1.56-2.73-2.3a30.23,30.23,0,0,0-2.85-2.05C23.2,187.18,23.28,187.05,23.36,187.1Z"/><path class="cls-6" d="M15.94,189.91c.5.21,1,.39,1.52.6l1.5.62c.11.05.06.22-.05.18l-1.51-.61c-.51-.21-1-.44-1.5-.64C15.81,190,15.85,189.87,15.94,189.91Z"/><path class="cls-7" d="M48.77,225.66S46.39,242.13,34,247.9s-27.49,0-27.49,0S12.45,212.25,48.77,225.66Z"/><path class="cls-6" d="M15.05,237.18c1.14-.13,2.27-.32,3.41-.53l1.66-.32.87-.17c.33-.31.66-.63,1-.93a49.75,49.75,0,0,1,7.58-5.49,40.47,40.47,0,0,1,4.54-2.33h-.23l-4.08.17c-2.72.13-5.44.19-8.15.36-.1,0-.1-.14,0-.15,2.73-.18,5.44-.48,8.16-.72l4-.35,2-.18.52-.05c.71-.27,1.42-.52,2.14-.74A19.31,19.31,0,0,1,49,225.18c3.12.8,6.23,2.84,7,6.13,0,.11-.14.19-.19.08-1.16-2.75-4.21-4.13-7-4.7a16.27,16.27,0,0,0-5.61-.11,13.76,13.76,0,0,1-.63,2.49c-.34,1.16-.68,2.32-1,3.48-.7,2.31-1.48,4.6-2.16,6.92a.08.08,0,0,1-.15,0c.58-2.32,1.06-4.65,1.62-7,.27-1.13.56-2.27.84-3.4a18.26,18.26,0,0,1,.63-2.35,29,29,0,0,0-3.22.76,47.78,47.78,0,0,0-5.61,2.06c-.18,1.17-.45,2.34-.72,3.49-.34,1.46-.71,2.9-1.17,4.32a.07.07,0,0,1-.14,0c0-.09,0-.18.05-.27h0c.27-1.35.57-2.69.85-4,.23-1.08.44-2.17.68-3.26q-2.31,1-4.52,2.29c0,.33-.11.68-.16,1-.09.57-.19,1.13-.29,1.69-.23,1.28-.49,2.54-.79,3.8a60.75,60.75,0,0,1-2.13,7.16.09.09,0,0,1,0,.1l-.07.08a.08.08,0,0,1-.13-.08c.57-2.44,1.23-4.86,1.76-7.31.27-1.22.54-2.45.79-3.67.12-.62.23-1.23.35-1.85,0-.17.06-.36.09-.55a50,50,0,0,0-4.83,3.22,51.79,51.79,0,0,0-7.38,6.74c-.09.1-.27,0-.18-.15a45.85,45.85,0,0,1,3-3.6c.62-.67,1.27-1.31,1.93-2l-.21,0c-.58.1-1.16.18-1.74.26-1.15.16-2.3.27-3.45.4C15,237.34,15,237.19,15.05,237.18Z"/><path class="cls-6" d="M23.75,242.77h0c0-.15.05-.29.07-.43a5.44,5.44,0,0,0,.15-.54h0c.25-1.1.47-2.21.67-3.32,0-.08.13-.05.13,0a13.53,13.53,0,0,1-.94,4.3c0,.05-.1,0-.09,0Z"/><path class="cls-6" d="M34.12,242.5a.08.08,0,0,1,.08-.07c.34-1.46.68-2.92,1-4.39.16-.77.32-1.54.47-2.31.08-.42.15-.84.23-1.25a3.56,3.56,0,0,1,.26-1.08.08.08,0,0,1,.14,0,7,7,0,0,1-.31,2.21q-.22,1.2-.48,2.4-.54,2.44-1.23,4.85a.08.08,0,0,1-.16,0Z"/><path class="cls-6" d="M16.18,232.44c2.26-.31,4.52-.64,6.79-.92.09,0,.13.14,0,.15-2.26.33-4.52.62-6.79.91C16.12,232.6,16.08,232.45,16.18,232.44Z"/><path class="cls-7" d="M55.11,187S62.69,153.76,27,140.3C27,140.3,17.06,184.08,55.11,187Z"/><path class="cls-6" d="M47.4,168.16a3.21,3.21,0,0,0-.38-.23l-2-1.13-4.15-2.32c-2.73-1.53-5.42-3.11-8.16-4.61-.09,0,0-.17.08-.13,2.75,1.5,5.55,2.9,8.31,4.36l4.1,2.17,1.67.88c-1.19-2.26-2.46-4.48-3.86-6.61-1.87-2.85-3.91-5.56-6.05-8.22-.09-.12.07-.28.18-.17a57.07,57.07,0,0,1,8.26,10.13c0-.11,0-.23,0-.34,0-.83-.06-1.66-.07-2.49,0-1.62.05-3.24,0-4.87,0-.09.15-.09.16,0,.06,1.6.25,3.19.35,4.79,0,.79.08,1.59.1,2.39,0,.43.05.92,0,1.39.73,1.17,1.44,2.36,2.11,3.57a62.23,62.23,0,0,1,3.19,6.69c0-.83.09-1.65.14-2.48.1-1.82.32-3.63.4-5.46a.08.08,0,1,1,.15,0c0,1.82.05,3.64,0,5.46,0,.91,0,1.82-.11,2.73l-.06,1a60.48,60.48,0,0,1,2.69,9.14,100,100,0,0,1,1.34,10s0,0,0,0a54.94,54.94,0,0,0-1.9-9q-.66-2.35-1.41-4.68c-1.49-.7-2.91-1.57-4.35-2.37l-4.48-2.45c-3-1.63-6-3.3-9-4.74-.09-.05,0-.17.08-.13,3.11,1.41,6.25,2.75,9.31,4.29,1.52.76,3,1.58,4.51,2.41,1.24.7,2.51,1.4,3.7,2.21-.35-1-.71-2.07-1.11-3.09A88.56,88.56,0,0,0,47.4,168.16Z"/><path class="cls-6" d="M50.41,160.56c0-.1.16-.1.15,0-.12,1.9-.19,3.79-.39,5.68a.09.09,0,0,1-.17,0C50.07,164.34,50.27,162.45,50.41,160.56Z"/><path class="cls-6" d="M33.28,166.91c2.24.9,4.49,1.75,6.72,2.68.06,0,0,.13,0,.11-2.26-.85-4.49-1.77-6.73-2.65C33.14,167,33.19,166.87,33.28,166.91Z"/><path class="cls-6" d="M29.88,151.57A57.14,57.14,0,0,1,36.24,155c.1.06,0,.22-.1.16-2.07-1.21-4.19-2.38-6.34-3.44C29.72,151.65,29.8,151.53,29.88,151.57Z"/><rect class="cls-9" x="30.42" y="258.94" width="51.53" height="54.32" transform="translate(112.38 572.2) rotate(180)"/><rect class="cls-6" x="82.87" y="278.16" width="2.64" height="93.04"/><rect class="cls-6" x="27.15" y="278.16" width="2.64" height="93.04"/><rect class="cls-6" x="53.61" y="278.16" width="2.64" height="93.04"/><rect class="cls-6" x="28.47" y="309.78" width="55.71" height="7.52" transform="translate(112.66 627.07) rotate(180)"/><rect class="cls-7" x="62.54" y="201.68" width="50.47" height="132.43"/><rect class="cls-10" x="62.54" y="201.68" width="50.47" height="132.43"/><rect class="cls-7" x="324.32" y="201.68" width="50.47" height="132.43"/><rect class="cls-10" x="324.32" y="201.68" width="50.47" height="132.43"/><rect class="cls-7" x="113" y="108.45" width="211.33" height="225.65"/><rect class="cls-10" x="113" y="108.45" width="211.33" height="225.65"/><g class="cls-11"><rect x="324.35" y="201.68" width="1.2" height="132.42"/><rect x="112.4" y="201.68" width="1.2" height="132.42"/><path d="M325.56,295.67H112.4V254.6H325.56Zm-211.93-1.23h210.7V255.83H113.63Z"/></g><g class="cls-11"><path d="M126.16,180.87a.84.84,0,0,0,0,1.67A.84.84,0,0,0,126.16,180.87Z"/><path d="M127.59,283.11a.84.84,0,0,0,0,1.67A.84.84,0,0,0,127.59,283.11Z"/><path d="M184.7,267.15a1.19,1.19,0,0,0-.13-.25.37.37,0,0,0-.64,0,1.19,1.19,0,0,0-.13.25C183.32,268.14,185.18,268.14,184.7,267.15Z"/><path d="M101.28,285.22a2,2,0,0,0-.13-.25.38.38,0,0,0-.65,0,2,2,0,0,0-.13.25C99.9,286.21,101.75,286.21,101.28,285.22Z"/><path d="M133.35,186a.64.64,0,0,0,0,1.27A.64.64,0,0,0,133.35,186Z"/><path d="M88.86,250.77a.64.64,0,0,0,0,1.28A.64.64,0,0,0,88.86,250.77Z"/><path d="M172.67,150.35a.89.89,0,0,0-1.25,0,1.24,1.24,0,0,0-.3,1.21,1,1,0,0,0,1.85,0A1.22,1.22,0,0,0,172.67,150.35Z"/><path d="M134.59,278.38a.89.89,0,0,0-1.25,0,1.25,1.25,0,0,0-.3,1.21,1,1,0,0,0,1.85,0A1.26,1.26,0,0,0,134.59,278.38Z"/><path d="M310.17,287a.84.84,0,0,0,0-1.67A.84.84,0,0,0,310.17,287Z"/><path d="M259.42,175.45a.84.84,0,0,0,0-1.67A.84.84,0,0,0,259.42,175.45Z"/><path d="M337.24,279.11a2,2,0,0,0,.13.25.38.38,0,0,0,.65,0,2,2,0,0,0,.13-.25C338.62,278.12,336.76,278.12,337.24,279.11Z"/><path d="M233.93,228.76a.89.89,0,0,0,1.25,0,1.23,1.23,0,0,0,.3-1.2,1,1,0,0,0-1.85,0A1.23,1.23,0,0,0,233.93,228.76Z"/></g><g class="cls-11"><path d="M113.6,295.67s53.22,10.38,105.31,10.38,105.41-10.38,105.41-10.38Z"/></g><rect class="cls-9" x="62.54" y="322.46" width="312.24" height="11.64"/><polygon class="cls-9" points="130.14 334.1 117.31 360.38 104.42 386.79 93.19 386.79 97.36 360.38 101.51 334.1 130.14 334.1"/><polygon class="cls-6" points="101.51 334.1 130.14 334.1 122.36 350.04 99 350.04 101.51 334.1"/><polygon class="cls-9" points="339.32 386.79 328.1 386.79 315.2 360.38 302.37 334.1 331 334.1 335.15 360.38 339.32 386.79"/><polygon class="cls-6" points="333.51 350.04 310.15 350.04 302.37 334.1 331 334.1 333.51 350.04"/><path class="cls-12" d="M342,277.33c-.92-2.77-49.95-67.55-53.3-68.8-.38-.16-22.3,15.44-22.3,15.44-.9,1.2-42.56-7.6-42.56-7.6l-.42,50.26L299.27,265s10.25,6,19.63,10.94h0c5.77,3.05,10.88,5.61,12.34,6C335.06,282.91,342.89,280.09,342,277.33Z"/><path class="cls-13" d="M331.27,281.94c-1.47-.38-6.57-2.94-12.34-6h0C309.53,271,299.28,265,299.28,265l-16.89.36-26.45-42.66c5.81,1,10.14,1.64,10.43,1.25,0,0,21.9-15.59,22.29-15.42,3.35,1.24,52.38,66,53.29,68.79S335.06,282.92,331.27,281.94Z"/><path class="cls-7" d="M342.4,277.42c-1-2.84-50.21-67.58-53.65-68.87-1.3-.49-12,6.13-22.39,15.42l31.8,41.7s29.35,15.54,33.27,16.55S343.37,280.26,342.4,277.42Z"/><path class="cls-6" d="M339.11,278.46c-8.53-10.65-41.89-54.41-49.51-65.59-.06-.09,0-.13.07-.05,8.68,10.37,41.69,54.4,49.62,65.51C339.45,278.56,339.29,278.69,339.11,278.46Z"/><path class="cls-6" d="M325.93,279.82a11,11,0,0,1-2.29-8.51,10.62,10.62,0,0,1,3.95-6.83c.07-.05.16.07.1.13a12.66,12.66,0,0,0-1.62,15.11A.09.09,0,0,1,325.93,279.82Z"/><path class="cls-6" d="M301.84,268.25c-3.36-4.3-5.66-10.5-4.16-15.91.06-.2.35-.12.39.06a75.56,75.56,0,0,0,4.36,15.52A.34.34,0,0,1,301.84,268.25Z"/><path class="cls-6" d="M305.7,270.61c-3.36-4.3-5.66-10.5-4.16-15.91.06-.21.35-.12.38.06a76,76,0,0,0,4.37,15.51A.34.34,0,0,1,305.7,270.61Z"/><path class="cls-6" d="M309.56,273c-3.37-4.3-5.66-10.51-4.16-15.91.05-.21.35-.12.38.06a75.32,75.32,0,0,0,4.37,15.51A.34.34,0,0,1,309.56,273Z"/><path class="cls-6" d="M313.42,275.32c-3.37-4.29-5.66-10.5-4.17-15.9.06-.21.36-.12.39.06A74.87,74.87,0,0,0,314,275,.34.34,0,0,1,313.42,275.32Z"/><path class="cls-6" d="M281.39,223.48c-3.69-4.89,3.9-10.63,7.6-5.74S285.09,228.37,281.39,223.48Z"/><path class="cls-6" d="M299.93,276.57c1.24-4.65.42-9.67.21-14.39a.67.67,0,0,0-.94-.51.15.15,0,0,0-.23,0,28.68,28.68,0,0,0-8.11,12.4c-.86,2.79-.53,6.92,3,7.73C297.13,282.53,299.2,279.28,299.93,276.57Zm-3.45,2.94c-5.06,3.16-4.67-3.86-4-5.9a31.87,31.87,0,0,1,1.72-3.82,84.12,84.12,0,0,1,4.58-7.34c0,2.33.12,4.63.17,7C299.06,272.18,299.27,277.76,296.48,279.51Z"/><path class="cls-6" d="M284.46,248.31c-2.57,2.5-.73,6.2,1.45,8.15a28.74,28.74,0,0,0,13.34,6.45.14.14,0,0,0,.17-.15.67.67,0,0,0,.55-.93c-2.25-4.16-4.14-8.88-7.6-12.22C290.35,247.66,286.9,246,284.46,248.31Zm10.81,7.92c1.15,2,2.21,4.07,3.44,6a86,86,0,0,1-7.71-3.94,31.4,31.4,0,0,1-3.44-2.38c-1.67-1.37-5.62-7.19.34-7.09C291.19,248.93,293.89,253.82,295.27,256.23Z"/><path class="cls-6" d="M221.5,201H187.44s-35.63-17.13-64.33-10.23C90.21,198.64,86,240,110.59,254.58c31.16,18.51,169.82,14.93,169.82,14.93l-30-50.8s-46.11-9.71-87.92-8.3l59,8Z"/><path class="cls-14" d="M252.43,222a1.11,1.11,0,0,1-.07-.26,1.6,1.6,0,0,0-.05-.21c0-.16-.08-.33-.13-.49a8.29,8.29,0,0,0-.35-1c-.13-.33-.27-.65-.42-1a6.43,6.43,0,0,0-.56-.9.24.24,0,0,0-.08-.06l-.05,0s-.05,0-.08,0a.15.15,0,0,0-.07,0c-5.07-.95-39.53-5.88-44.65-6.46s-10.35-1.07-15.53-1.51a310.17,310.17,0,0,0-31.09-1.12l-2.91.09c-.21-.07-.43-.1-.64-.15-.5-.12-1-.25-1.5-.34-.93-.18-1.88-.32-2.82-.46-2-.3-3.93-.51-5.88-.88-.12,0-.17.16-.05.19,2,.43,3.89,1,5.86,1.43l1.7.36c-3.8.2-7.6.49-11.39.83-.12,0-.13.2,0,.19,5.17-.3,10.37-.34,15.54-.25s10.27.2,15.4.49C183,211,193.34,212,203.68,213c5.79.61,40.93,5.73,46.75,6h.07c.05.13.1.26.16.39.16.32.32.63.49.94s.34.59.52.88l.29.42.15.21a1.7,1.7,0,0,1,.15.22C252.3,222.19,252.5,222.1,252.43,222Z"/><path class="cls-14" d="M269.59,266.42c-1.85-3-3.43-6.14-5.13-9.2L259.34,248c-3.41-6.11-15.65-26.7-16.86-28.14-.08-.09-.23,0-.2.12.58,1.6,8.22,15.22,10,18.26,3.52,6.08,7.21,12,10.86,18,1,1.71,2.11,3.4,3.17,5.1s2.17,3.38,3.14,5.13A.09.09,0,1,0,269.59,266.42Z"/><path class="cls-14" d="M242.13,225c-3.06-.74-6.19-1.22-9.28-1.8l-9.3-1.75q-9.31-1.72-18.64-3.3c-12.4-2.09-24.86-3.82-37.39-5-7.07-.68-14.16-1.13-21.24-1.65-.15,0-.15.23,0,.24,12.61.57,25.21,2.28,37.7,4.07s24.72,3.73,37,5.81q5.22.87,10.43,1.78c3.53.62,7.07,1.37,10.62,1.82C242.21,225.22,242.27,225,242.13,225Z"/><path class="cls-12" d="M277.37,442.65c-3-.3-77.26-33.69-79.29-36.75-.78-1.16,3.45-12.26,8.95-25.53,1.18-2.86,2.43-5.82,3.7-8.81,8.28-19.42,17.52-39.84,17.52-39.84L278,353.91l-18.88,39.23L255,401.76s22.72,25.5,24.59,29.1S280.36,443,277.37,442.65Z"/><path class="cls-13" d="M277.37,442.65c-3-.3-77.26-33.69-79.29-36.75-.94-1.41,5.5-17.51,12.65-34.34l48.39,21.58L255,401.76s22.72,25.5,24.59,29.1S280.36,443,277.37,442.65Z"/><path class="cls-7" d="M277.37,442.65c-3-.3-77.26-33.69-79.29-36.75-.78-1.16,3.45-12.26,8.95-25.53L255,401.76s22.72,25.5,24.59,29.1S280.36,443,277.37,442.65Z"/><path class="cls-6" d="M277.64,439.2c-12.31-5.9-62.54-28.55-75.16-33.45-.1,0-.13,0,0,.08,12.07,6.12,62.48,28.35,75.1,33.57C277.82,439.51,277.9,439.32,277.64,439.2Z"/><path class="cls-6" d="M276,426a11,11,0,0,0-8.82-.31,10.7,10.7,0,0,0-5.77,5.4c0,.07.11.14.15.07a12.67,12.67,0,0,1,14.37-5A.09.09,0,0,0,276,426Z"/><path class="cls-6" d="M259.25,405.17c-4.95-2.31-11.52-3.15-16.45-.47-.19.11,0,.38.14.37a75,75,0,0,1,16.12.75A.34.34,0,0,0,259.25,405.17Z"/><path class="cls-6" d="M262.43,408.4c-5-2.31-11.53-3.15-16.45-.47-.2.11,0,.38.14.37a75,75,0,0,1,16.12.75A.34.34,0,0,0,262.43,408.4Z"/><path class="cls-6" d="M265.6,411.63c-5-2.31-11.52-3.15-16.45-.47-.19.11,0,.38.14.37a75,75,0,0,1,16.12.75A.34.34,0,0,0,265.6,411.63Z"/><path class="cls-6" d="M268.77,414.85c-4.95-2.3-11.52-3.14-16.45-.46-.19.11,0,.37.14.37a75,75,0,0,1,16.12.75A.35.35,0,0,0,268.77,414.85Z"/><path class="cls-6" d="M211,395.35c-5.6-2.49-9.49,6.2-3.88,8.7S216.58,397.85,211,395.35Z"/><path class="cls-6" d="M270.62,394.29c-1.59-3.23-5.68-2.61-8.22-1.14a28.7,28.7,0,0,0-10.25,10.71.14.14,0,0,0,.09.21c-.05.41.23.9.72.81,4.65-.86,9.73-1.2,14-3.46C269.42,400.1,272.11,397.34,270.62,394.29Zm-10.88,7.84c-2.28.48-4.56.85-6.82,1.41a84.13,84.13,0,0,1,6.12-6.12,30.69,30.69,0,0,1,3.34-2.55c1.82-1.16,8.58-3.12,6.64,2.52C268,400.5,262.45,401.56,259.74,402.13Z"/><path class="cls-6" d="M238.94,400.14c4,2.62,9.07,3.4,13.63,4.65.47.13.8-.33.78-.74a.14.14,0,0,0,.11-.2,28.71,28.71,0,0,0-9.3-11.55c-2.4-1.69-6.43-2.65-8.28.43C234.13,395.64,236.58,398.62,238.94,400.14ZM237.2,396c-1.45-5.79,5.12-3.25,6.84-1.94a33.12,33.12,0,0,1,3.1,2.82,85.81,85.81,0,0,1,5.58,6.63c-2.2-.76-4.45-1.31-6.68-2C243.39,400.67,238,399.15,237.2,396Z"/><path class="cls-6" d="M211.87,367l55.95,25.3s66.61-127.83,68.35-167c1.48-33.3-21.71-46.15-96.65-24.61l-18.36.23v12.67c8.06,1.06,29.56,4.44,29.56,4.44,15.64,5.9,20.68,8.34,20.43,8.85C232.14,305.69,211.87,367,211.87,367Z"/><path class="cls-14" d="M280.32,212.87c-2.26,3-4.35,6.14-6.35,9.34-12-5.35-25.11-8.45-38.13-10.05-3.68-.46-7.38-.78-11.09-1-.15,0-.15.23,0,.24a167,167,0,0,1,38.8,7.38c3.48,1.07,6.9,2.32,10.34,3.54-2.41,3.85-4.67,7.78-6.84,11.75a235.69,235.69,0,0,0-10.95,22.84c-1.79,4.32-3.54,8.67-5.09,13.09a.12.12,0,0,0,.22.08q10.25-22.86,22.39-44.75c2.28-4.12,4.66-8.18,6.89-12.33C280.58,212.89,280.4,212.75,280.32,212.87Z"/><path class="cls-14" d="M269,378.78c-3.26-1.27-6.42-2.86-9.61-4.3l-9.62-4.31c-6.39-2.87-28.51-12-30.34-12.46-.12,0-.18.15-.09.21,1.42.93,15.69,7.28,18.92,8.66,6.45,2.76,13,5.32,19.49,7.95,1.86.75,3.73,1.46,5.6,2.2s3.76,1.4,5.58,2.22A.09.09,0,1,0,269,378.78Z"/><path class="cls-14" d="M280,218.64c-4.42,8.39-8.17,17.17-12,25.83s-7.53,17.32-11.14,26q-10.77,26.07-20.06,52.7c-3.52,10.05-6.81,20.16-10,30.31,0,.14.18.2.23.06,5.93-17.94,12.35-35.72,19-53.38s13.8-35.09,21.32-52.37q3.16-7.28,6.43-14.52c2.18-4.82,4.45-9.62,6.49-14.5C280.42,218.61,280.15,218.44,280,218.64Z"/><path class="cls-14" d="M185.74,199.9c1.23,1.29,79,3.07,79.4,2.58,1.06-1.34-9-50.7-17.11-69.56-10.42-24.19-16.28-26.36-19.77-27.8-4.46-1.85-12.58-1.41-14.54-.59-2.23.91-11.89,11.73-14.78,20.49C193.13,142.61,184.67,198.76,185.74,199.9Z"/><path class="cls-6" d="M234.6,109.43h-26c.48-.56.95-1.09,1.4-1.57h23C233.46,108.3,234,108.82,234.6,109.43Zm3.28,4.1H205.3q-.56.77-1.11,1.56h34.74Q238.39,114.27,237.88,113.53Zm3.51,5.66H201.62c-.3.52-.58,1-.85,1.56h41.47Zm3,5.67H199l-.06.16c-.15.44-.29.91-.44,1.4h46.59C244.84,125.88,244.59,125.37,244.34,124.86Zm2.64,5.66H197.35c-.13.5-.27,1-.4,1.56h50.71Zm2.36,5.66H196c-.11.52-.23,1-.35,1.57h54.31C249.73,137.21,249.53,136.69,249.34,136.18Zm2,5.67h-56.6q-.18.78-.33,1.56h57.44Zm1.77,5.66H193.57c-.1.52-.21,1-.31,1.56h60.31C253.41,148.54,253.26,148,253.1,147.51Zm1.63,5.67H192.48c-.1.52-.19,1-.29,1.56h63C255,154.22,254.88,153.7,254.73,153.18Zm1.53,5.66H191.45c-.1.52-.19,1-.28,1.56h65.5C256.53,159.88,256.4,159.36,256.26,158.84Zm1.45,5.66H190.46l-.27,1.57h67.9C258,165.55,257.83,165,257.71,164.5Zm1.37,5.67H189.51c-.08.52-.17,1-.25,1.56h70.18Zm1.3,5.66H188.61l-.24,1.56h72.36C260.62,176.87,260.5,176.35,260.38,175.83Zm1.25,5.66H187.75c-.08.53-.15,1.06-.23,1.57H262Zm1.18,5.67H187q-.12.81-.21,1.56h76.37C263,188.21,262.91,187.69,262.81,187.16Zm1.09,5.66H186.21c-.06.55-.12,1.08-.17,1.57h78.14C264.09,193.89,264,193.36,263.9,192.82Zm1,5.67H185.67a3.45,3.45,0,0,0,.07,1.41,1.17,1.17,0,0,0,.47.15h78.85C265,199.59,264.94,199.07,264.86,198.49Z"/><path class="cls-12" d="M241.15,111.67c33.54,25.2,62.54,60.18,59.76,71.25-3,11.71-26.14,24.82-46.61,27.49-4.19.55-17.16-30.2-12.87-31.61,3.35-1.1,18.57-5.43,20.38-7.52,1.27-1.45-22.34-34.67-30-52C223.74,101.12,232.17,104.92,241.15,111.67Z"/><path class="cls-12" d="M250.08,177.86s-12.8,1.29-21.13,2.53c-4.65.69-12.51,2.58-15.7,4.65-4.76,3.09-22.69,19.07-18.91,23.5,3.42,4,8.59-2.34,8.59-2.34s-6.3,6.41-1.68,9.35,10.58-6,10.58-6-7.16,6.34-1.93,9c4.54,2.31,12.48-7.23,12.48-7.23s-8.25,5.83-3.83,8.66c4.88,3.12,18.58-9.69,18.58-9.69,11,1.23,17.7.48,25.42-1.68C264,208.25,250.08,177.86,250.08,177.86Z"/><path class="cls-6" d="M209.91,211.72c.49-.68,1-1.35,1.5-2a43.27,43.27,0,0,1,3.06-3.84c1.09-1.17,2.23-2.28,3.4-3.37s2.6-2.18,3.81-3.35a.1.1,0,1,1,.13.14,43.79,43.79,0,0,0-3.42,3.65c-1.09,1.21-2.17,2.45-3.24,3.68s-2.18,2.33-3.26,3.5c-.54.58-1.06,1.19-1.57,1.8a12.84,12.84,0,0,1-1.5,1.7.07.07,0,0,1-.11-.08A10.26,10.26,0,0,1,209.91,211.72Z"/><path class="cls-6" d="M201.64,207.56a65.64,65.64,0,0,1,5.53-7.25,45.84,45.84,0,0,1,6.75-6.16c.09-.06.2.06.13.14-2,2.27-4.11,4.52-6.18,6.77-1,1.1-5.45,6.23-6,6.71C201.76,207.88,201.58,207.7,201.64,207.56Z"/><path class="cls-6" d="M217.57,215.84a62.52,62.52,0,0,1,5.32-6.73,58.61,58.61,0,0,1,6.87-5.45c.09-.06.21.06.13.13-2.15,2-4.32,3.93-6.37,6-1,1-4.73,5.29-5.77,6.18A.12.12,0,0,1,217.57,215.84Z"/><path class="cls-14" d="M278.44,142.74,252.9,159.3S234,130,229,116.06s.82-13.93,14.22-3.86S278.44,142.74,278.44,142.74Z"/><path class="cls-6" d="M239.38,109.43h-12a7.7,7.7,0,0,1,0-1.57h9.61C237.7,108.32,238.52,108.85,239.38,109.43Zm5.62,4.1H228.22c.14.5.3,1,.49,1.56H247Zm7,5.66H230.27c.21.5.44,1,.68,1.56h22.9C253.23,120.22,252.61,119.69,252,119.19Zm6.65,5.67H232.9q.38.77.78,1.56h26.75Zm6.43,5.66H235.81c.28.51.56,1,.85,1.56H266.8Zm6.27,5.66H238.93l.89,1.57h33.23Zm6.15,5.67H242.2c.31.53.61,1.05.92,1.56h34.29l1-.67Zm-31.92,5.66.94,1.56h22.17l2.4-1.56Zm3.47,5.67,1,1.56h9.92l2.41-1.56Zm3.57,5.66.29.46.71-.46Z"/><path class="cls-6" d="M272.64,139.08c-9.75,7.75-19.36,13-21.27,14.34-.09.07-.18-.09-.08-.14,1.94-1.19,12.35-8.84,21.25-14.37C272.65,138.85,272.73,139,272.64,139.08Z"/><path class="cls-6" d="M254.54,158.16A14.61,14.61,0,0,0,253,159c-2.84-4.9-5.9-9.87-8.79-14.74-1.41-2.39-2.83-4.77-4.24-7.17s-2.8-5.08-4.4-7.48a.06.06,0,1,0-.11.06,77.51,77.51,0,0,0,3.48,6.94c-.26-.35-.51-.71-.79-1-.63-.75-1.25-1.5-1.82-2.3-.08-.12-.29,0-.2.12.54.76,1,1.55,1.51,2.35s1,1.56,1.55,2.33,1.08,1.43,1.65,2.13l.21.26c.78,1.42,1.54,2.86,2.35,4.27,2.84,4.92,9.29,14.86,9.38,14.83a14.83,14.83,0,0,0,1.85-1.23C254.69,158.24,254.61,158.15,254.54,158.16Z"/><path class="cls-12" d="M199.13,110.7c-27.22,14.15-52.78,31.35-57.58,43.3-3,7.52.7,21.14,3.74,29.34,1.48,4,39.13-11.54,36-14.85-7.73-8.18-9-11.47-8.14-13.12.53-1.06,30.32-26.92,38.68-38.58C223.47,100.55,211,104.52,199.13,110.7Z"/><path class="cls-12" d="M195.51,205.42c-3.55,2-7.73-7.19-7.73-7.19a7.47,7.47,0,0,1-2.1,4.66c-2.26,2.12-6.57-.49-6.57-.49a9.31,9.31,0,0,1-3,4.57c-2.37,1.81-7.1-.21-7.1-.21a8.15,8.15,0,0,1-5.17,2.36c-5.22.16-9.66-6.47-12.52-10.66s-7.06-18.74-8.14-21.43l26.71-18.61s18.18,15.12,20.84,20.52C193,183.49,201,202.37,195.51,205.42Z"/><path class="cls-6" d="M187.84,198.1c-1.23-5.41-3.75-10.52-6.23-15.42a.1.1,0,0,0-.17.09c2.53,4.85,3.82,10.48,6.15,15.42C187.66,198.32,187.88,198.24,187.84,198.1Z"/><path class="cls-6" d="M179.4,202.07a14.64,14.64,0,0,0-1.65-3.4c-.67-1.17-1.35-2.32-2.06-3.46-1.4-2.28-2.86-4.54-4.39-6.74-.07-.1-.23,0-.17.09,1.4,2.27,2.77,4.57,4.07,6.91.65,1.17,1.29,2.34,1.93,3.52a17.46,17.46,0,0,0,1.94,3.25A.2.2,0,0,0,179.4,202.07Z"/><path class="cls-6" d="M169,206.67a10.17,10.17,0,0,0-1.64-3c-.67-1-1.32-2.06-2-3.09-1.3-2.07-2.6-4.14-3.83-6.25-.06-.11-.23,0-.17.08,1.24,2.16,2.45,4.33,3.71,6.47.61,1.05,1.24,2.1,1.87,3.14a9.39,9.39,0,0,0,1.94,2.71C168.9,206.77,169,206.72,169,206.67Z"/><path class="cls-7" d="M159.81,131.9l19.93,19.54s26.21-23.2,33.8-35.85,2-13.81-13.17-6.61S159.81,131.9,159.81,131.9Z"/><path class="cls-14" d="M159.81,131.9l19.93,19.54s26.21-23.2,33.8-35.85,2-13.81-13.17-6.61S159.81,131.9,159.81,131.9Z"/><path class="cls-6" d="M216.86,107.86a8.36,8.36,0,0,1-.35,1.57H199.44c.31-.16.62-.3.93-.45.84-.4,1.65-.77,2.43-1.12Zm-25.41,5.67-2.88,1.56h25.27c.32-.54.62-1.07.89-1.56Zm-10.2,5.66-2.73,1.56h31.41c.41-.53.8-1,1.18-1.56Zm-9.77,5.67-2.61,1.56h36.29c.46-.52.92-1,1.36-1.56Zm-9.42,5.66-2.25,1.38.18.18h39.92l1.48-1.56Zm2.11,5.66,1.6,1.57h28.55l1.57-1.57Zm5.78,5.67,1.59,1.56h16.92l1.65-1.56Zm5.77,5.66,1.59,1.56h5.07l1.7-1.56Z"/><path class="cls-6" d="M183.88,146.34c-9.2-7.82-16-16-17.58-17.52-.08-.07.06-.18.13-.1,1.48,1.62,10.71,10.08,17.6,17.5C184.11,146.31,184,146.41,183.88,146.34Z"/><path class="cls-6" d="M201.5,120.35c-1,2.13-2,4.27-2.84,6.47,0-.15,0-.3,0-.44a27.29,27.29,0,0,1,.61-4c0-.14-.19-.21-.23-.06-.3,1.33-.57,2.67-.79,4-.1.64-.16,1.3-.21,2a2.08,2.08,0,0,1,0,.23l0,.09c-1,2.92-1.57,5.93-2.41,8.89a.12.12,0,0,0,.23.06c.82-2.9,2-5.71,3-8.54s1.86-5.73,2.84-8.57C201.72,120.32,201.55,120.25,201.5,120.35Z"/><path class="cls-12" d="M215.53,118c4.38,1.21,12.2-5.26,15.4-10.61.22-.37-.21-4.34-.51-9.2-.16-2.94-.28-6.22-.17-9.23,0-.61-19,3.89-19,3.89a47.69,47.69,0,0,1,1.39,11.59,6.64,6.64,0,0,1-.17,1.23c0,.06,0,.12,0,.2C212,108.21,211.3,116.84,215.53,118Z"/><path class="cls-6" d="M229.09,89c-1.06,5-4.67,17.19-14.73,17a12.35,12.35,0,0,1-1.92-.17,1.05,1.05,0,0,1,0-.21,7.79,7.79,0,0,0,.18-1.22,48.07,48.07,0,0,0-1.4-11.61S225,89.61,229.09,89Z"/><path class="cls-7" d="M210.1,78.46c.09,4.61-3.12,8.41-7.17,8.49s-7.4-3.6-7.49-8.21,3.12-8.42,7.17-8.5S210,73.84,210.1,78.46Z"/><ellipse class="cls-4" cx="204.33" cy="78.86" rx="8.16" ry="9.3" transform="translate(-1.48 3.95) rotate(-1.1)"/><path class="cls-12" d="M229.28,64c3.11,6.26,2.81,25.88-1.17,30.91-5.78,7.29-16.8,9.73-23.4,2.43-6.39-7.07-5.54-32.64-.94-37.37C210.53,53,224.68,54.8,229.28,64Z"/><path class="cls-6" d="M213.82,81.09s.1.06.1.12c-.06,1.32.1,2.84,1.29,3.29,0,0,0,.08,0,.07C213.74,84.35,213.55,82.33,213.82,81.09Z"/><path class="cls-6" d="M215,79.72c2.13-.14,2.25,4.13.28,4.26S213.23,79.84,215,79.72Z"/><path class="cls-6" d="M206.42,81.34s-.1.06-.09.12c.07,1.32-.06,2.84-1.24,3.31,0,0,0,.09,0,.08C206.56,84.6,206.71,82.57,206.42,81.34Z"/><path class="cls-6" d="M205.2,80c-2.12-.1-2.17,4.17-.2,4.26S207,80.08,205.2,80Z"/><path class="cls-6" d="M216.88,76.29a17.08,17.08,0,0,1-1.73-.23,2.86,2.86,0,0,1-1.73-.58.9.9,0,0,1-.08-1.1,2.23,2.23,0,0,1,2.16-.68,3.29,3.29,0,0,1,2.15,1A1,1,0,0,1,216.88,76.29Z"/><path class="cls-6" d="M203.16,76.93a14,14,0,0,0,1.68-.49,2.78,2.78,0,0,0,1.62-.82.9.9,0,0,0-.08-1.1,2.25,2.25,0,0,0-2.24-.36,3.28,3.28,0,0,0-2,1.32A1,1,0,0,0,203.16,76.93Z"/><path class="cls-6" d="M216.37,93.3c-.3.32-.61.76-1.09.81a3.59,3.59,0,0,1-1.43-.29,0,0,0,0,0,0,.07,1.81,1.81,0,0,0,1.7.67,1.41,1.41,0,0,0,1-1.2C216.52,93.28,216.42,93.26,216.37,93.3Z"/><path class="cls-6" d="M214.87,89.39a4.48,4.48,0,0,1-2.94,2.08,5.52,5.52,0,0,1-1.62.12,1.56,1.56,0,0,1-.31,0l-.29,0a.32.32,0,0,1-.27-.29h0a.57.57,0,0,1,0-.13h0V91c-.05-1,0-2.57,0-2.57-.37.2-2.24,1.11-2.22.57.14-4.4.29-9.3,1.36-13.66a.12.12,0,0,1,.24,0c0,4.24-.68,8.46-.71,12.72a8,8,0,0,1,2.11-.71c.14,0-.16,3-.1,3.45a.18.18,0,0,0,0,0,6.23,6.23,0,0,0,4.62-1.58C214.84,89.19,215,89.28,214.87,89.39Z"/><path class="cls-6" d="M210.9,91.06a5.34,5.34,0,0,0,2.18,1.6,2.41,2.41,0,0,0,1.46,0c1.05-.31,1.05-1.28.83-2.1a6,6,0,0,0-.51-1.26A6.89,6.89,0,0,1,210.9,91.06Z"/><path class="cls-15" d="M213.08,92.66a2.41,2.41,0,0,0,1.46,0c1.05-.31,1.05-1.28.83-2.1A2.46,2.46,0,0,0,213.08,92.66Z"/><path class="cls-16" d="M231.37,78c-1.28-.24-4.25-4.67-5.51-6.44s-1.77-11-1.84-13.16A13.94,13.94,0,0,1,229.28,64C230.68,66.84,231.37,72.31,231.37,78Z"/><path class="cls-6" d="M207.86,65.6a6.65,6.65,0,0,0,6.08,2.21,6.76,6.76,0,0,0,5.2-4.07c0-.06.12,0,.1,0a6.72,6.72,0,0,1-5.2,4.57,6.87,6.87,0,0,1-6.3-2.65A.08.08,0,0,1,207.86,65.6Z"/><path class="cls-6" d="M214.65,49.16c3.85.06,7.39,2.17,8.81,4.79a7.41,7.41,0,0,1,.76,4.85c0,.07-.15.05-.14,0a8.21,8.21,0,0,0-3.91-7.38,10.53,10.53,0,0,0-9.33-1.06,6.65,6.65,0,0,0-3.57,2.89c-.07.14-.36,0-.3-.09C208,50.74,211.16,49.1,214.65,49.16Z"/><path class="cls-6" d="M192.34,57.63a8.43,8.43,0,0,1,3.59-4.58c2.35-1.48,5-1.28,7.67-1a.06.06,0,1,1,0,.11c-2.25-.21-4.56-.29-6.62.78A8.34,8.34,0,0,0,193.13,57a8.13,8.13,0,0,0,3.43,10.08,8.29,8.29,0,0,0,6.52.63c.08,0,.14.09.06.12a8.3,8.3,0,0,1-10.8-10.21Z"/><path class="cls-6" d="M230.58,67.86s3.58-6.93.49-10.88c-1.76-2.24-7.5-1.89-7.5-1.89a10.38,10.38,0,0,0-6.66-4.32c-4.82-1.05-10.51,1.82-10.51,1.82s-4.59-2.57-8.84-.08c-5.93,3.47-5.09,12.55.94,15.4,4.24,2,9.92-1.78,9.92-1.78.56.07,6.23,3.41,10.44-1.66,0,0,3.49,3,6.58.85A5,5,0,0,0,230.58,67.86Z"/><path class="cls-12" d="M227.8,80.24s3.41-6.81,6.44-5.68,1.09,10.56-2,12.27a3.39,3.39,0,0,1-4.75-1.15Z"/><path class="cls-6" d="M233.62,77.25s.07.06,0,.09c-2.17,1.27-3.07,3.58-3.6,5.93a1.86,1.86,0,0,1,2.69-.91c.07,0,0,.13,0,.13a2.08,2.08,0,0,0-2.16,1.05,9.59,9.59,0,0,0-.82,2c-.08.22-.47.17-.42-.08v-.06C228.82,82.46,230.5,78,233.62,77.25Z"/><polygon class="cls-4" points="220.37 93.89 226.59 91.39 231.7 85.36 230.77 84.58 225.86 90.38 219.92 92.76 220.37 93.89"/><path class="cls-9" d="M221.05,92.92c-.55-1.8-5.59-1.27-4.75,1.46S221.61,94.74,221.05,92.92Z"/><path class="cls-4" d="M234.34,74.38s.93-10.06-1.88-15.69c-3.12-6.27-16.58-12.51-26.06-6.1,0,0,15.23-2.32,22.07,6.44,2.88,3.69,2.5,15.53,2.5,15.53Z"/><ellipse class="cls-4" cx="232.92" cy="79.51" rx="9.3" ry="8.16" transform="translate(145.09 309.43) rotate(-87.94)"/><path class="cls-7" d="M227.16,79c-.17,4.61,3,8.46,7,8.61s7.46-3.48,7.63-8.09-3-8.47-7-8.61S227.32,74.4,227.16,79Z"/><path class="cls-6" d="M233.21,108.79a86.12,86.12,0,0,1-6.59,7.3c-2.25,2.1-4.94,4-8,4.31s-6-.28-7.11-3.93c-.9-2.88-.78-5.87-.3-9.58a.12.12,0,1,0-.23,0c-.63,4.78-1.28,12.19,3.08,13.8,4.88,1.8,9.62-.74,13-4.13a45.4,45.4,0,0,0,6.26-7.67S233.25,108.74,233.21,108.79Z"/><rect class="cls-4" x="169.33" y="218.27" width="88.93" height="3.99"/><polygon class="cls-3" points="239.23 218.27 242.28 222.26 169.33 222.26 169.33 218.27 239.23 218.27"/><polygon class="cls-4" points="235.43 222.25 148.76 222.25 141.55 163.39 228.21 163.39 235.43 222.25"/><path class="cls-13" d="M193.76,192.82a5.15,5.15,0,0,1-5.18,5.28,5.39,5.39,0,0,1-5.37-5.28,5.17,5.17,0,0,1,5.19-5.27A5.38,5.38,0,0,1,193.76,192.82Z"/><rect class="cls-14" x="342.17" y="230.04" width="92.72" height="11.88"/><rect class="cls-9" x="344.78" y="241.92" width="87.49" height="3.71"/><rect class="cls-14" x="357.27" y="332.25" width="62.5" height="3.71"/><polygon class="cls-14" points="355.25 386.79 350.62 386.79 350.62 245.63 363.25 245.63 355.25 386.79"/><polygon class="cls-6" points="363.25 245.63 362.78 253.98 350.62 253.98 350.62 245.63 363.25 245.63"/><polygon class="cls-14" points="421.8 386.79 426.44 386.79 426.44 245.63 413.8 245.63 421.8 386.79"/><polygon class="cls-6" points="413.8 245.63 414.27 253.98 426.43 253.98 426.43 245.63 413.8 245.63"/><rect class="cls-14" x="344.78" y="200.42" width="71.46" height="12.18"/><rect class="cls-1" x="404" y="200.42" width="6.66" height="12.18"/><rect class="cls-1" x="350.36" y="200.42" width="6.66" height="12.18"/><rect class="cls-6" x="348.4" y="212.59" width="78.42" height="17.45"/><rect class="cls-13" x="390.51" y="214.4" width="36.31" height="13.83" transform="translate(817.32 442.63) rotate(180)"/><path class="cls-2" d="M426.81,217.24c-4.87-.09-18.15-.26-18.15-.26l-3.52.06q-7.32,0-14.63.2,7.32.15,14.63.21l3.52.06S421.94,217.34,426.81,217.24Z"/><path class="cls-2" d="M426.81,220c-4.87-.1-18.15-.27-18.15-.27l-3.52.06q-7.32.06-14.63.21c4.88.09,9.75.17,14.63.2l3.52.06S421.94,220.05,426.81,220Z"/><path class="cls-2" d="M426.81,222.67c-4.87-.1-18.15-.27-18.15-.27l-3.52.06q-7.32.06-14.63.21,7.32.15,14.63.2l3.52.07S421.94,222.77,426.81,222.67Z"/><path class="cls-2" d="M426.81,225.38c-4.87-.1-18.15-.26-18.15-.26l-3.52.06q-7.32,0-14.63.2,7.32.15,14.63.21l3.52.06S421.94,225.48,426.81,225.38Z"/><rect class="cls-7" x="355.54" y="191.12" width="70.3" height="9.3"/><rect class="cls-13" x="355.53" y="192.08" width="47.17" height="7.37"/><path class="cls-2" d="M358.58,197.94c3.68,0,7.36.06,11,.08l11,0,11,0c3.68,0,7.36,0,11-.08q-5.51-.06-11-.08l-11,0-11,0Q364.11,197.88,358.58,197.94Z"/><path class="cls-2" d="M358.58,196.49q5.52.06,11,.08l11,0,11,0q5.52,0,11-.08c-3.67,0-7.35-.06-11-.08l-11,0-11,0C365.94,196.43,362.26,196.45,358.58,196.49Z"/><path class="cls-2" d="M358.58,195.05c3.68,0,7.36.06,11,.07l11,0,11,0,11-.08q-5.51-.06-11-.08l-11,0-11,0Q364.11,195,358.58,195.05Z"/><path class="cls-2" d="M358.58,193.6c3.68,0,7.36.06,11,.08l11,0,11,0c3.68,0,7.36,0,11-.08q-5.51-.06-11-.08l-11,0-11,0Q364.11,193.54,358.58,193.6Z"/><path class="cls-13" d="M184,56.49a17.78,17.78,0,0,0,3.05-9.86c0-12.5-13.72-22.63-30.64-22.63s-30.62,10.13-30.62,22.63,13.71,22.63,30.62,22.63A36.84,36.84,0,0,0,177.55,63l10.55,2.68Z"/><path class="cls-6" d="M184,56.49a18,18,0,0,0,2.94-9.33,17.63,17.63,0,0,0-2.57-9.37,24.46,24.46,0,0,0-6.72-7.1,31.58,31.58,0,0,0-8.78-4.35,40.13,40.13,0,0,0-9.65-1.82,42.22,42.22,0,0,0-9.79.54,34.62,34.62,0,0,0-9.33,3,28.64,28.64,0,0,0-8,5.55,20.12,20.12,0,0,0-5.06,8.16,16.42,16.42,0,0,0-.13,9.52,20,20,0,0,0,4.94,8.24,28.78,28.78,0,0,0,7.92,5.66,35.24,35.24,0,0,0,9.31,3,41.26,41.26,0,0,0,9.8.66,36.13,36.13,0,0,0,18.52-6l.08-.06.1,0,10.53,2.8-.13.15Zm0,0,4.2,9.15.1.2-.22,0-10.59-2.57.19,0a36.32,36.32,0,0,1-18.74,6.35,39.42,39.42,0,0,1-19.54-3.61,29.42,29.42,0,0,1-8.19-5.81A20.81,20.81,0,0,1,126,51.5a17.28,17.28,0,0,1,.09-10.07,21,21,0,0,1,5.34-8.54,29.56,29.56,0,0,1,8.26-5.71,35.42,35.42,0,0,1,9.58-3,40.44,40.44,0,0,1,19.81,1.47,32.29,32.29,0,0,1,8.9,4.55,24.07,24.07,0,0,1,6.75,7.35A17.49,17.49,0,0,1,184,56.49Z"/><polygon class="cls-13" points="222.38 127.57 222.38 159.15 233.45 159.15 233.45 170.1 245.32 159.15 286.7 159.15 286.7 127.57 222.38 127.57"/><path class="cls-6" d="M222.38,127.57l.27,31.58-.27-.27,11.07-.06h.33v.33l.06,10.95-.66-.29,11.84-11,.13-.12h.17l41.38,0-.48.48,0-31.58.43.43-32-.17Zm0,0,32.05-.26,32.27-.17h.43v.44l.06,31.58v.49h-.49l-41.38,0,.3-.11-11.91,10.91-.66.61v-.9l.05-10.95.34.34-11.07-.06h-.28v-.28Z"/></g></g></svg>