<svg width="28" height="28" viewBox="0 0 28 28" fill="none" xmlns="http://www.w3.org/2000/svg">
<path fill-rule="evenodd" clip-rule="evenodd" d="M5.09091 0C2.27928 0 0 2.27928 0 5.09091V22.9091C0 25.7207 2.27928 28 5.09091 28H22.9091C25.7207 28 28 25.7207 28 22.9091V5.09091C28 2.27928 25.7207 0 22.9091 0H5.09091ZM3.19736 19.6911L7.26186 8.07473V7.23305H10.5087L15.0061 19.6911H12.2163L11.1581 16.7812H6.75681L5.77075 19.6911H3.19736ZM7.45427 14.3038H10.4365L8.9454 9.44571L7.45427 14.3038ZM23.3276 17.3102V19.4748C22.8867 19.6512 21.6633 20.0041 20.2972 20.0041C18.5896 20.0041 15.4872 19.1864 15.4872 14.9293C15.4872 11.1774 18.2529 10.0951 20.2972 10.0951C22.1251 10.0951 24.1693 11.4419 24.1693 14.0154V15.6988H18.2529C18.4213 16.3803 19.1332 17.7432 20.634 17.7432C22.1346 17.7432 23.0549 17.4546 23.3276 17.3102ZM18.277 13.8951H21.7162C21.6761 13.3019 21.2833 12.1155 20.0326 12.1155C18.782 12.1155 18.3411 13.3019 18.277 13.8951Z" fill="#2A7AE4"/>
</svg>
