<svg width="28" height="28" viewBox="0 0 28 28" fill="none" xmlns="http://www.w3.org/2000/svg">
<path fill-rule="evenodd" clip-rule="evenodd" d="M5.09091 0C2.27928 0 0 2.27928 0 5.09091V22.9091C0 25.7207 2.27928 28 5.09091 28H22.9091C25.7207 28 28 25.7207 28 22.9091V5.09091C28 2.27928 25.7207 0 22.9091 0H5.09091ZM19.6605 9.76421C20.3634 9.76421 20.9332 9.19439 20.9332 8.49148C20.9332 7.78857 20.3634 7.21876 19.6605 7.21876C18.9575 7.21876 18.3877 7.78857 18.3877 8.49148C18.3877 9.19439 18.9575 9.76421 19.6605 9.76421ZM20.9332 20.3276V11.1345H18.3877V20.3276H20.9332ZM4.93368 20.3275L8.99819 8.71109V7.86941H12.245L16.7425 20.3275H13.9527L12.8944 17.4175H8.49314L7.50707 20.3275H4.93368ZM9.19061 14.9402H12.1729L10.6817 10.0821L9.19061 14.9402Z" fill="#2A7AE4"/>
</svg>
