<svg width="28" height="28" viewBox="0 0 28 28" fill="none" xmlns="http://www.w3.org/2000/svg">
<path fill-rule="evenodd" clip-rule="evenodd" d="M5.09091 0C2.27928 0 0 2.27928 0 5.09091V22.9091C0 25.7207 2.27928 28 5.09091 28H22.9091C25.7207 28 28 25.7207 28 22.9091V5.09091C28 2.27928 25.7207 0 22.9091 0H5.09091ZM10.2975 3.81818H13.3057V9.83471H10.2975C8.63605 9.83471 7.2892 8.48787 7.2892 6.82645C7.2892 5.16503 8.63605 3.81818 10.2975 3.81818ZM14.2314 10.2975V3.81818H17.471C19.2602 3.81818 20.7107 5.26863 20.7107 7.05785C20.7107 8.84707 19.2602 10.2975 17.471 10.2975H14.2314ZM17.2396 17.0082C18.901 17.0082 20.2479 15.6614 20.2479 14C20.2479 12.3386 18.901 10.9917 17.2396 10.9917C15.5782 10.9917 14.2314 12.3386 14.2314 14C14.2314 15.6614 15.5782 17.0082 17.2396 17.0082ZM13.3057 17.0082V10.9917H10.2975C8.63605 10.9917 7.2892 12.3386 7.2892 14C7.2892 15.6614 8.63605 17.0082 10.2975 17.0082H13.3057ZM13.3057 21.1736V18.1653H10.2975C8.63605 18.1653 7.2892 19.5122 7.2892 21.1736C7.2892 22.835 8.63605 24.1818 10.2975 24.1818C11.9589 24.1818 13.3057 22.835 13.3057 21.1736Z" fill="#2A7AE4"/>
</svg>
