<svg width="28" height="28" viewBox="0 0 28 28" fill="none" xmlns="http://www.w3.org/2000/svg">
<path fill-rule="evenodd" clip-rule="evenodd" d="M5.09091 0C2.27928 0 0 2.27928 0 5.09091V22.9091C0 25.7207 2.27928 28 5.09091 28H22.9091C25.7207 28 28 25.7207 28 22.9091V5.09091C28 2.27928 25.7207 0 22.9091 0H5.09091ZM5.72727 7.63636H10.1818C12.642 7.63636 14.6364 9.63073 14.6364 12.0909C14.6364 14.5511 12.642 16.5455 10.1818 16.5455H8.27273V20.3636H5.72727V7.63636ZM8.27273 14H10.1818C11.2362 14 12.0909 13.1452 12.0909 12.0909C12.0909 11.0365 11.2362 10.1818 10.1818 10.1818H8.27273V14ZM21.5409 13.5348C20.4499 13.288 19.2951 13.0946 18.4568 13.1569C18.0334 13.1884 17.4922 13.3197 18.0381 13.7578C18.4866 14.1177 19.0165 14.342 19.5486 14.567C20.096 14.7986 20.6457 15.0312 21.1115 15.4136C21.7626 15.948 22.2727 16.728 22.2727 17.8182C22.2727 18.9069 21.7584 19.7403 20.9388 20.236C20.2152 20.6735 19.3404 20.7993 18.583 20.818C17.3582 20.8484 16.0101 20.6038 15.0043 20.3578V17.7251C15.9309 17.9901 17.3694 18.3019 18.52 18.2733C19.1187 18.2585 19.4699 18.1486 19.6305 18.0524C19.8856 17.8998 19.6533 17.5098 19.4965 17.3811C19.0485 17.0134 18.5099 16.7864 17.9693 16.5583C17.4347 16.333 16.8981 16.1067 16.4449 15.743C15.7956 15.2218 15.2727 14.4521 15.2727 13.3638C15.2727 12.4786 15.6407 11.7334 16.3173 11.2452C16.9173 10.8122 17.6455 10.6648 18.268 10.6185C19.3176 10.5404 20.5292 10.7231 21.5409 10.9307V13.5348Z" fill="#2A7AE4"/>
</svg>
