<svg width="42" height="25" viewBox="0 0 42 25" fill="none" xmlns="http://www.w3.org/2000/svg">
<mask id="mask0_33071_43" style="mask-type:luminance" maskUnits="userSpaceOnUse" x="0" y="0" width="42" height="25">
<path d="M0 0H41.6667V25H0V0Z" fill="white"/>
</mask>
<g mask="url(#mask0_33071_43)">
<path fill-rule="evenodd" clip-rule="evenodd" d="M20.8333 0C15.2778 0 11.8056 2.77778 10.4167 8.33333C12.5 5.55556 14.9306 4.51389 17.7083 5.20833C19.2932 5.60417 20.4259 6.75463 21.6798 8.02701C23.7222 10.1003 26.0864 12.5 31.25 12.5C36.8056 12.5 40.2778 9.72222 41.6667 4.16667C39.5833 6.94444 37.1528 7.98611 34.375 7.29167C32.7901 6.89583 31.6574 5.74537 30.4035 4.47299C28.3611 2.39969 25.9969 0 20.8333 0ZM10.4167 12.5C4.86111 12.5 1.38889 15.2778 0 20.8333C2.08333 18.0556 4.51389 17.0139 7.29167 17.7083C8.87654 18.1049 10.0093 19.2546 11.2631 20.527C13.3056 22.6003 15.6698 25 20.8333 25C26.3889 25 29.8611 22.2222 31.25 16.6667C29.1667 19.4444 26.7361 20.4861 23.9583 19.7917C22.3735 19.3958 21.2407 18.2454 19.9869 16.973C17.9444 14.8997 15.5802 12.5 10.4167 12.5Z" fill="#3681E4"/>
</g>
</svg>
