<svg width="68" height="34" viewBox="0 0 68 34" fill="none" xmlns="http://www.w3.org/2000/svg">
<path d="M50.846 1.72892e-07H16.9478C14.1539 -0.000398896 11.4032 0.690054 8.94059 2.00989C6.47802 3.32972 4.38001 5.23798 2.83333 7.56478C1.28665 9.89158 0.339308 12.5647 0.0756334 15.3462C-0.188041 18.1277 0.240137 20.9312 1.32205 23.5072C2.40396 26.0832 4.10603 28.3517 6.27673 30.1107C8.44743 31.8698 11.0194 33.0648 13.7637 33.5894C16.5079 34.114 19.3393 33.9519 22.0058 33.1176C24.6723 32.2832 27.0911 30.8025 29.0468 28.8072H38.7396C40.6951 30.8022 43.1136 32.2829 45.7797 33.1173C48.4459 33.9517 51.2769 34.114 54.0209 33.5897C56.7649 33.0655 59.3368 31.871 61.5075 30.1125C63.6783 28.354 65.3806 26.0861 66.4629 23.5106C67.5453 20.9352 67.9741 18.1321 67.7112 15.3508C67.4483 12.5696 66.5019 9.89646 64.9562 7.56941C63.4104 5.24237 61.3133 3.33358 58.8515 2.01295C56.3898 0.692324 53.6397 0.000823459 50.846 1.72892e-07ZM26.2678 18.2163C26.2678 18.5534 26.1339 18.8766 25.8955 19.115C25.6572 19.3533 25.3339 19.4872 24.9969 19.4872H19.4896V24.9945C19.4896 25.3315 19.3557 25.6548 19.1174 25.8931C18.879 26.1315 18.5558 26.2654 18.2187 26.2654H15.6769C15.3398 26.2654 15.0166 26.1315 14.7782 25.8931C14.5399 25.6548 14.406 25.3315 14.406 24.9945V19.4872H8.89876C8.56169 19.4872 8.23843 19.3533 8.00009 19.115C7.76175 18.8766 7.62785 18.5534 7.62785 18.2163V15.6745C7.62785 15.3374 7.76175 15.0142 8.00009 14.7758C8.23843 14.5375 8.56169 14.4036 8.89876 14.4036H14.406V8.89633C14.406 8.55927 14.5399 8.23601 14.7782 7.99767C15.0166 7.75933 15.3398 7.62543 15.6769 7.62543H18.2187C18.5558 7.62543 18.879 7.75933 19.1174 7.99767C19.3557 8.23601 19.4896 8.55927 19.4896 8.89633V14.4036H24.9969C25.3339 14.4036 25.6572 14.5375 25.8955 14.7758C26.1339 15.0142 26.2678 15.3374 26.2678 15.6745V18.2163ZM49.1441 26.2654C48.3062 26.2654 47.4871 26.0169 46.7905 25.5514C46.0938 25.0859 45.5508 24.4243 45.2302 23.6502C44.9096 22.8761 44.8257 22.0243 44.9891 21.2025C45.1526 20.3808 45.556 19.6259 46.1485 19.0335C46.741 18.441 47.4958 18.0375 48.3176 17.8741C49.1394 17.7106 49.9912 17.7945 50.7652 18.1151C51.5393 18.4358 52.201 18.9788 52.6665 19.6754C53.132 20.3721 53.3804 21.1911 53.3804 22.029C53.3804 23.1526 52.9341 24.2301 52.1396 25.0246C51.3451 25.819 50.2676 26.2654 49.1441 26.2654ZM55.9222 16.0981C55.0844 16.0981 54.2653 15.8497 53.5686 15.3842C52.872 14.9187 52.329 14.257 52.0083 13.483C51.6877 12.7089 51.6038 11.8571 51.7673 11.0353C51.9307 10.2135 52.3342 9.45869 52.9267 8.86623C53.5191 8.27376 54.274 7.87029 55.0958 7.70683C55.9175 7.54337 56.7693 7.62726 57.5434 7.9479C58.3175 8.26854 58.9791 8.81152 59.4446 9.50819C59.9101 10.2049 60.1586 11.0239 60.1586 11.8618C60.1586 12.9853 59.7122 14.0629 58.9178 14.8573C58.1233 15.6518 57.0458 16.0981 55.9222 16.0981Z" fill="#2A7AE4"/>
</svg>
