<svg width="68" height="53" viewBox="0 0 68 53" fill="none" xmlns="http://www.w3.org/2000/svg">
<path d="M63.8121 0.00639112C57.3629 0.372397 44.5445 1.70461 36.6312 6.5486C36.0851 6.88283 35.7756 7.47715 35.7756 8.09854V50.9212C35.7756 52.2805 37.262 53.1396 38.5154 52.5088C46.6569 48.411 58.4315 47.293 64.2535 46.987C66.2412 46.8822 67.7864 45.2887 67.7864 43.3787V3.61938C67.7876 1.53514 65.9799 -0.116003 63.8121 0.00639112ZM31.1552 6.5486C23.2431 1.70461 10.4247 0.373574 3.97546 0.00639112C1.80767 -0.116003 0 1.53514 0 3.61938V43.3799C0 45.2911 1.54523 46.8846 3.53296 46.9881C9.35728 47.2941 21.1377 48.4133 29.2793 52.5135C30.5291 53.1432 32.0108 52.2852 32.0108 50.9295V8.07735C32.0108 7.45479 31.7025 6.88401 31.1552 6.5486Z" fill="#2A7AE4"/>
</svg>
