<svg width="68" height="48" viewBox="0 0 68 48" fill="none" xmlns="http://www.w3.org/2000/svg">
<path d="M11.0153 6.77864H5.93131C4.52263 6.77864 3.38932 7.91195 3.38932 9.32063V20.3359H0.84733C0.381299 20.3359 0 20.7172 0 21.1833V26.2672C0 26.7333 0.381299 27.1146 0.84733 27.1146H3.38932V38.1299C3.38932 39.5385 4.52263 40.6719 5.93131 40.6719H11.0153C12.424 40.6719 13.5573 39.5385 13.5573 38.1299V9.32063C13.5573 7.91195 12.424 6.77864 11.0153 6.77864ZM66.9391 20.3359H64.3971V9.32063C64.3971 7.91195 63.2638 6.77864 61.8551 6.77864H56.7711C55.3624 6.77864 54.2291 7.91195 54.2291 9.32063V38.1299C54.2291 39.5385 55.3624 40.6719 56.7711 40.6719H61.8551C63.2638 40.6719 64.3971 39.5385 64.3971 38.1299V27.1146H66.9391C67.4051 27.1146 67.7864 26.7333 67.7864 26.2672V21.1833C67.7864 20.7172 67.4051 20.3359 66.9391 20.3359ZM48.2978 0H43.2138C41.8052 0 40.6719 1.1333 40.6719 2.54199V20.3359H27.1146V2.54199C27.1146 1.1333 25.9813 0 24.5726 0H19.4886C18.0799 0 16.9466 1.1333 16.9466 2.54199V44.9085C16.9466 46.3172 18.0799 47.4505 19.4886 47.4505H24.5726C25.9813 47.4505 27.1146 46.3172 27.1146 44.9085V27.1146H40.6719V44.9085C40.6719 46.3172 41.8052 47.4505 43.2138 47.4505H48.2978C49.7065 47.4505 50.8398 46.3172 50.8398 44.9085V2.54199C50.8398 1.1333 49.7065 0 48.2978 0Z" fill="#2A7AE4"/>
</svg>
